<svg width="47" height="46" viewBox="0 0 47 46" fill="none" xmlns="http://www.w3.org/2000/svg">
<path d="M23.0135 46C27.1926 46.0037 31.2932 44.8654 34.8723 42.7079C35.2348 42.4888 35.351 42.0174 35.1319 41.6549C34.9127 41.2925 34.4413 41.1763 34.0788 41.3954C27.0893 45.5906 18.3266 45.4648 11.4604 41.0707C4.5941 36.6766 0.809225 28.7725 1.6907 20.6684C2.57217 12.5643 7.96786 5.65872 15.6183 2.84356C16.0159 2.69769 16.2199 2.25713 16.074 1.85954C15.9282 1.46195 15.4876 1.25789 15.09 1.40376C4.61612 5.24106 -1.59447 16.0407 0.356848 27.0234C2.30817 38.0062 11.8588 46.0055 23.0135 46Z" fill="#B79C10"/>
<path d="M30.4088 2.84356C36.4645 5.06851 41.1994 9.89765 43.3046 15.996C45.4097 22.0944 44.6622 28.8161 41.2686 34.303C41.1243 34.5358 41.1151 34.8279 41.2446 35.0693C41.374 35.3108 41.6224 35.4648 41.8962 35.4734C42.17 35.482 42.4276 35.3438 42.572 35.111C46.2089 29.2324 47.0104 22.0302 44.7549 15.4958C42.4994 8.96147 37.4258 3.78722 30.937 1.40376C30.5394 1.25789 30.0989 1.46195 29.953 1.85954C29.8071 2.25713 30.0112 2.69769 30.4088 2.84356Z" fill="#B79C10"/>
<path d="M19.9469 14.2447V20.7238C19.1336 21.7991 18.951 23.2248 19.4669 24.4704C19.9828 25.716 21.12 26.595 22.4554 26.7804L28.43 32.7551L28.4346 32.762L39.2768 43.6003C39.5644 43.888 39.9545 44.0497 40.3613 44.0497C40.7681 44.0497 41.1582 43.888 41.4457 43.6003C43.8469 41.1984 42.4278 38.0803 36.0246 31.6741L32.7717 28.4211H32.7663L26.7901 22.4411C26.6993 21.8187 26.4553 21.2286 26.0802 20.7238V14.2431C27.478 13.6363 28.3818 12.2572 28.3802 10.7333V2.29998C28.3845 1.68946 28.1401 1.10348 27.7032 0.67695C27.6669 0.637742 27.6274 0.601586 27.5852 0.568849C26.714 -0.200342 25.4027 -0.187437 24.5469 0.59875C24.123 0.207264 23.5652 -0.00700051 22.9882 -1.76404e-05C22.4288 0.0122155 21.8922 0.22435 21.4756 0.597983C20.6276 -0.182178 19.329 -0.20099 18.4588 0.554283C17.9421 0.986592 17.6446 1.62634 17.6469 2.29998V10.7333C17.6446 12.2577 18.5485 13.6377 19.9469 14.2447ZM28.9782 31.1267L24.4081 26.5573C25.4001 26.1677 26.1851 25.3827 26.5747 24.3907L31.1402 28.9647L28.9782 31.1267ZM24.5469 19.4917C23.5706 19.0583 22.4565 19.0583 21.4802 19.4917V14.5667H24.5469V19.4917ZM20.7135 23C20.7135 21.7297 21.7433 20.7 23.0135 20.7C24.2838 20.7 25.3135 21.7297 25.3135 23C25.3135 24.2703 24.2838 25.3 23.0135 25.3C21.7433 25.3 20.7135 24.2703 20.7135 23ZM40.3609 42.5163L30.0615 32.2161L32.2296 30.048L34.9406 32.7581C42.5298 40.3474 41.1728 41.7067 40.3609 42.5163ZM19.1802 2.29998C19.1822 2.07372 19.2841 1.85991 19.4585 1.71578C19.7629 1.45635 20.2167 1.47921 20.4935 1.76792C20.6357 1.90829 20.715 2.10019 20.7135 2.29998V8.43332C20.7135 8.85674 21.0568 9.19999 21.4802 9.19999C21.9036 9.19999 22.2469 8.85674 22.2469 8.43332V2.29998C22.2528 1.89969 22.5603 1.56863 22.9591 1.53332H23.0856C23.4788 1.57437 23.778 1.9047 23.7802 2.29998V8.43332C23.7802 8.85674 24.1234 9.19999 24.5469 9.19999C24.9703 9.19999 25.3135 8.85674 25.3135 8.43332V2.29998C25.3135 1.87657 25.6568 1.53332 26.0802 1.53332C26.5036 1.53332 26.8469 1.87657 26.8469 2.29998V10.7333C26.8474 11.788 26.1292 12.7073 25.1058 12.962C24.9237 13.0118 24.7356 13.0358 24.5469 13.0333H21.4802C21.2849 13.035 21.0903 13.0092 20.9021 12.9567C19.8871 12.6967 19.178 11.7811 19.1802 10.7333V2.29998Z" fill="#B79C10"/>
<path d="M16.0438 5.96003C15.8675 5.57526 15.4128 5.40608 15.0279 5.58207C14.5012 5.8228 13.9945 6.09343 13.4946 6.37787C13.4724 6.3886 13.4486 6.3886 13.4271 6.40087C13.4057 6.41313 13.388 6.4392 13.365 6.4553C10.5178 8.12006 8.14826 10.4914 6.48572 13.34C6.46033 13.3637 6.43676 13.3894 6.41518 13.4166C6.4028 13.4458 6.39255 13.4757 6.38452 13.5063C2.99545 19.3996 3.00129 26.6518 6.39985 32.5396C6.40752 32.5534 6.40675 32.5695 6.41518 32.5833C6.42362 32.5971 6.44278 32.6178 6.45582 32.6362C8.13315 35.5059 10.5234 37.8935 13.3949 39.5677C13.408 39.5769 13.4156 39.5907 13.4302 39.5991C13.4519 39.6094 13.4742 39.6186 13.4969 39.6267C19.2104 42.908 26.2108 43.0166 32.0234 39.9142C32.2723 39.7891 32.4337 39.5389 32.4451 39.2605C32.4565 38.9822 32.3161 38.7196 32.0782 38.5746C31.8404 38.4296 31.5426 38.425 31.3004 38.5626C28.9782 39.7983 26.4084 40.4978 23.7802 40.6096V39.1C23.7802 38.6766 23.437 38.3333 23.0135 38.3333C22.5901 38.3333 22.2469 38.6766 22.2469 39.1V40.6142C19.6729 40.5048 17.1548 39.8286 14.8723 38.6339L15.6275 37.3267C15.7666 37.0894 15.7679 36.7957 15.6309 36.5571C15.4938 36.3185 15.2395 36.1717 14.9644 36.1723C14.6893 36.1729 14.4356 36.3209 14.2996 36.56L13.546 37.8634C11.3771 36.4765 9.53549 34.6349 8.14862 32.466L9.45195 31.7124C9.69112 31.5764 9.83909 31.3227 9.83969 31.0476C9.84029 30.7725 9.69344 30.5181 9.45488 30.3811C9.21632 30.2441 8.92262 30.2454 8.68529 30.3845L7.38195 31.1397C6.1866 28.8578 5.50963 26.3403 5.39935 23.7666H6.91352C7.33694 23.7666 7.68019 23.4234 7.68019 23C7.68019 22.5766 7.33694 22.2333 6.91352 22.2333H5.40855C5.52097 19.6615 6.19701 17.1458 7.38885 14.8641L8.68682 15.6139C8.92416 15.753 9.21785 15.7543 9.45641 15.6173C9.69498 15.4803 9.84183 15.2259 9.84122 14.9508C9.84062 14.6757 9.69265 14.422 9.45349 14.286L8.15015 13.5332C9.53335 11.3617 11.3747 9.51904 13.5452 8.1343L14.2996 9.43764C14.4356 9.6768 14.6893 9.82477 14.9644 9.82537C15.2395 9.82598 15.4938 9.67913 15.6309 9.44056C15.7679 9.202 15.7666 8.90831 15.6275 8.67097L14.8769 7.36763C15.1376 7.23193 15.3967 7.09394 15.6658 6.9705C16.0475 6.7943 16.2162 6.34352 16.0438 5.96003Z" fill="#B79C10"/>
<path d="M38.872 32.338C39.051 32.4346 39.2609 32.4561 39.4558 32.3979C39.6506 32.3397 39.8143 32.2064 39.9109 32.0275C43.0295 26.2226 42.928 19.2185 39.6425 13.5064C39.6345 13.4758 39.6243 13.4458 39.6119 13.4167C39.5906 13.3894 39.5673 13.3638 39.5421 13.34C37.8784 10.4911 35.5075 8.1197 32.659 6.45532C32.636 6.43922 32.6214 6.41545 32.5969 6.40089C32.5748 6.39233 32.5523 6.38491 32.5294 6.37865C32.0326 6.09345 31.5258 5.82282 30.9961 5.58209C30.6147 5.42554 30.1779 5.59853 30.0071 5.97369C29.8364 6.34885 29.9928 6.7919 30.3613 6.97665C30.6304 7.10009 30.8895 7.23809 31.1502 7.37379L30.3996 8.67712C30.2605 8.91446 30.2592 9.20815 30.3962 9.44671C30.5332 9.68528 30.7876 9.83213 31.0627 9.83152C31.3378 9.83092 31.5915 9.68295 31.7275 9.44379L32.4819 8.14045C34.6523 9.52519 36.4937 11.3679 37.8769 13.5393L36.5736 14.2922C36.3344 14.4282 36.1864 14.6819 36.1858 14.957C36.1852 15.2321 36.3321 15.4864 36.5706 15.6235C36.8092 15.7605 37.1029 15.7592 37.3402 15.6201L38.6382 14.8703C39.8292 17.1501 40.5052 19.6636 40.6185 22.2333H39.1135C38.6901 22.2333 38.3469 22.5766 38.3469 23C38.3469 23.4234 38.6901 23.7667 39.1135 23.7667H40.6231C40.513 26.4009 39.8082 28.976 38.5615 31.2992C38.465 31.4781 38.4434 31.6881 38.5016 31.8829C38.5599 32.0777 38.6931 32.2414 38.872 32.338Z" fill="#B79C10"/>
</svg>
