<svg width="48" height="41" viewBox="0 0 48 41" fill="none" xmlns="http://www.w3.org/2000/svg">
<path d="M48 22.5225H47.0625C48.3796 20.8333 48.0779 18.3962 46.3887 17.0791C45.7927 16.6143 45.0737 16.3339 44.3203 16.2722V12.6675C44.3203 5.68219 38.6372 0 31.6528 0H16.35C9.36469 0 3.6825 5.68312 3.6825 12.6675V16.2722C1.54753 16.4454 -0.04275 18.3167 0.1305 20.4517C0.191719 21.2059 0.472219 21.9257 0.9375 22.5225H0V24.0225H1.99406V30.2878H3.63469V33.2878C3.63881 37.3019 6.89184 40.5549 10.9059 40.5591H37.0941C41.1082 40.5549 44.3612 37.3019 44.3653 33.2878V30.2878H46.0059V24.0225H48V22.5225ZM5.18156 12.6675C5.18831 6.50212 10.1846 1.50581 16.35 1.49906H31.65C37.8154 1.50581 42.8117 6.50212 42.8184 12.6675V16.2581H5.18156V12.6675ZM4.00125 17.7581H43.9987C45.3146 17.7581 46.3814 18.8249 46.3814 20.1408C46.3814 21.4567 45.3146 22.5234 43.9987 22.5234H4.00125C2.68538 22.5234 1.61859 21.4567 1.61859 20.1408C1.61859 18.8249 2.68538 17.7581 4.00125 17.7581ZM37.7859 24.0234L34.7109 25.43L31.6359 24.0234H37.7859ZM42.8644 33.2887C42.8607 36.4747 40.279 39.0563 37.0931 39.06H10.9059C7.72003 39.0563 5.13834 36.4747 5.13469 33.2887V30.2888H42.8653L42.8644 33.2887ZM44.505 28.7888H3.49406V24.0225H29.2031L34.7109 27.335L40.2188 24.0225H44.505V28.7888Z" fill="#B79C10"/>
</svg>
