<svg width="41" height="32" viewBox="0 0 41 32" fill="none" xmlns="http://www.w3.org/2000/svg">
<path d="M39.2318 31.9035C36.4472 30.8612 33.9787 29.1174 32.0657 26.8411L28.6055 22.7162C24.8029 18.1809 18.0437 17.5869 13.5084 21.3894C13.0282 21.792 12.5843 22.236 12.1817 22.7162L8.72241 26.8411C6.80934 29.1174 4.341 30.8611 1.55625 31.9035C1.83131 29.7688 1.27406 27.6102 0 25.8755C1.05778 24.4375 1.62684 22.6985 1.62375 20.9134C1.62666 19.1286 1.05759 17.3899 0 15.9522C1.05778 14.5143 1.62684 12.7752 1.62375 10.9901C1.62684 9.20503 1.05778 7.46597 0 6.02803C1.27406 4.29328 1.83131 2.13469 1.55625 0C4.34091 1.04241 6.80934 2.78616 8.72241 5.06241L12.1817 9.18731C15.9843 13.7226 22.7435 14.3166 27.2787 10.5141C27.7589 10.1115 28.2028 9.6675 28.6055 9.18731L32.0648 5.06241C33.9778 2.78616 36.4462 1.04241 39.2309 0C38.9558 2.13469 39.5131 4.29328 40.7872 6.02803C38.6224 8.98153 38.6224 12.9978 40.7872 15.9513C38.6224 18.9048 38.6224 22.921 40.7872 25.8745C39.5132 27.6097 38.9562 29.7686 39.2318 31.9035Z" fill="#FFE145"/>
</svg>
