<svg width="34" height="48" viewBox="0 0 34 48" fill="none" xmlns="http://www.w3.org/2000/svg">
<path d="M28.0875 31.1316C25.7597 31.1316 23.0803 31.9931 20.1244 33.6928C19.1231 34.2684 18.2681 34.8403 17.6297 35.295V24.3891C18.2681 24.8438 19.1241 25.4203 20.1244 25.9912C23.0794 27.6909 25.7587 28.5525 28.0875 28.5525C31.22 28.5525 33.7594 26.0131 33.7594 22.8806C33.7594 19.7482 31.22 17.2087 28.0875 17.2087C25.7597 17.2087 23.0803 18.0703 20.1244 19.77C19.1241 20.3438 18.2681 20.9166 17.6297 21.375V17.1441C18.4987 16.0315 19.2878 14.8589 19.9913 13.635C21.6909 10.6791 22.5525 8.00062 22.5525 5.67188C22.5525 2.53941 20.0131 0 16.8806 0C13.7482 0 11.2087 2.53941 11.2087 5.67188C11.2087 7.99969 12.0703 10.6791 13.77 13.635C14.4728 14.8589 15.2614 16.0315 16.1297 17.1441V21.375C15.4913 20.9203 14.6353 20.3438 13.635 19.7728C10.68 18.0731 8.00062 17.2116 5.67188 17.2116C2.53941 17.2116 0 19.751 0 22.8834C0 26.0159 2.53941 28.5553 5.67188 28.5553C7.99969 28.5553 10.6791 27.6937 13.635 25.9941C14.6363 25.4184 15.4913 24.8466 16.1297 24.3919V35.295C15.4913 34.8403 14.6353 34.2638 13.635 33.6928C10.68 31.9931 8.00062 31.1316 5.67188 31.1316C2.53941 31.1316 0 33.671 0 36.8034C0 39.9359 2.53941 42.4753 5.67188 42.4753C7.99969 42.4753 10.6791 41.6138 13.635 39.9141C14.6363 39.3384 15.4913 38.7666 16.1297 38.3119V48H17.6297V38.3119C18.2681 38.7666 19.1241 39.3431 20.1244 39.9141C23.0794 41.6138 25.7587 42.4753 28.0875 42.4753C31.22 42.4753 33.7594 39.9359 33.7594 36.8034C33.7594 33.671 31.22 31.1316 28.0875 31.1316ZM28.0875 18.7078C30.3916 18.7065 32.2605 20.5732 32.2618 22.8773C32.2631 25.1813 30.3965 27.0502 28.0924 27.0516C28.0908 27.0516 28.0891 27.0516 28.0875 27.0516C24.1903 27.0516 19.8244 24.1453 18.1087 22.8797C19.8244 21.615 24.1922 18.7078 28.0875 18.7078ZM12.7078 5.67188C12.7078 3.36778 14.5756 1.5 16.8797 1.5C19.1838 1.5 21.0516 3.36778 21.0516 5.67188C21.0516 9.56906 18.1453 13.9359 16.8787 15.6516C15.6141 13.9378 12.7078 9.57562 12.7078 5.67188ZM5.67656 27.0516C3.37247 27.0516 1.50469 25.1838 1.50469 22.8797C1.50469 20.5756 3.37247 18.7078 5.67656 18.7078C9.57375 18.7078 13.9406 21.6141 15.6562 22.8806C13.9378 24.1462 9.57562 27.0525 5.67188 27.0525L5.67656 27.0516ZM5.67656 40.9753C3.37247 40.9753 1.50469 39.1075 1.50469 36.8034C1.50469 34.4993 3.37247 32.6316 5.67656 32.6316C9.57375 32.6316 13.9406 35.5378 15.6562 36.8044C13.9378 38.0691 9.57562 40.9753 5.67188 40.9753H5.67656ZM28.0922 40.9753C24.195 40.9753 19.8291 38.0691 18.1134 36.8034C19.8291 35.5378 24.1959 32.6316 28.0922 32.6316C30.3963 32.6316 32.2641 34.4993 32.2641 36.8034C32.2641 39.1075 30.3963 40.9753 28.0922 40.9753Z" fill="#B79C10"/>
</svg>
